<?xml version="1.0" encoding="UTF-8" standalone="no"?>
<!-- Created with Inkscape (http://www.inkscape.org/) -->

<svg
   xmlns:dc="http://purl.org/dc/elements/1.1/"
   xmlns:cc="http://creativecommons.org/ns#"
   xmlns:rdf="http://www.w3.org/1999/02/22-rdf-syntax-ns#"
   xmlns:svg="http://www.w3.org/2000/svg"
   xmlns="http://www.w3.org/2000/svg"
   xmlns:sodipodi="http://sodipodi.sourceforge.net/DTD/sodipodi-0.dtd"
   xmlns:inkscape="http://www.inkscape.org/namespaces/inkscape"
   width="572.03815"
   height="180.84666"
   viewBox="0 0 151.35177 47.849012"
   version="1.1"
   id="svg6853"
   inkscape:version="0.92.1 r15371"
   sodipodi:docname="Sysmex company logo.svg">
  <defs
     id="defs6847">
    <clipPath
       clipPathUnits="userSpaceOnUse"
       id="clipPath5825">
      <path
         d="M 384.427,271.806 H 373.99 v 24.819 h 10.437 z"
         id="path5823"
         inkscape:connector-curvature="0" />
    </clipPath>
    <clipPath
       clipPathUnits="userSpaceOnUse"
       id="clipPath5841">
      <path
         d="m 373.99037,271.80652 v 24.81934 h 10.43719 v -24.81934 z"
         id="path5839"
         inkscape:connector-curvature="0" />
    </clipPath>
    <linearGradient
       x1="0"
       y1="0"
       x2="1"
       y2="0"
       gradientUnits="userSpaceOnUse"
       gradientTransform="matrix(0,24.808,24.808,0,378.673,271.806)"
       spreadMethod="pad"
       id="linearGradient5847">
      <stop
         style="stop-opacity:1;stop-color:#7fc270"
         offset="0"
         id="stop5843" />
      <stop
         style="stop-opacity:1;stop-color:#009944"
         offset="1"
         id="stop5845" />
    </linearGradient>
    <clipPath
       clipPathUnits="userSpaceOnUse"
       id="clipPath5793">
      <path
         d="m 393.066,241.236 h -15.214 v 27.945 h 15.214 z"
         id="path5791"
         inkscape:connector-curvature="0" />
    </clipPath>
    <clipPath
       clipPathUnits="userSpaceOnUse"
       id="clipPath5809">
      <path
         d="M 377.852,241.23634 V 269.181 h 15.21385 v -27.94466 z"
         id="path5807"
         inkscape:connector-curvature="0" />
    </clipPath>
    <linearGradient
       x1="0"
       y1="0"
       x2="1"
       y2="0"
       gradientUnits="userSpaceOnUse"
       gradientTransform="matrix(0,27.945,27.945,0,385.423,241.236)"
       spreadMethod="pad"
       id="linearGradient5815">
      <stop
         style="stop-opacity:1;stop-color:#55c3f1"
         offset="0"
         id="stop5811" />
      <stop
         style="stop-opacity:1;stop-color:#0098db"
         offset="1"
         id="stop5813" />
    </linearGradient>
    <clipPath
       clipPathUnits="userSpaceOnUse"
       id="clipPath5761">
      <path
         d="m 384.539,232.757 h -9.54 v 24.817 h 9.54 z"
         id="path5759"
         inkscape:connector-curvature="0" />
    </clipPath>
    <clipPath
       clipPathUnits="userSpaceOnUse"
       id="clipPath5777">
      <path
         d="m 374.99916,232.75764 v 24.81734 h 9.54014 v -24.81734 z"
         id="path5775"
         inkscape:connector-curvature="0" />
    </clipPath>
    <linearGradient
       x1="0"
       y1="0"
       x2="1"
       y2="0"
       gradientUnits="userSpaceOnUse"
       gradientTransform="matrix(0,24.806,24.806,0,379.683,232.769)"
       spreadMethod="pad"
       id="linearGradient5783">
      <stop
         style="stop-opacity:1;stop-color:#005bac"
         offset="0"
         id="stop5779" />
      <stop
         style="stop-opacity:1;stop-color:#00ade6"
         offset="1"
         id="stop5781" />
    </linearGradient>
    <clipPath
       clipPathUnits="userSpaceOnUse"
       id="clipPath5729">
      <path
         d="m 380.504,260.2 h -15.142 v 27.944 h 15.142 z"
         id="path5727"
         inkscape:connector-curvature="0" />
    </clipPath>
    <clipPath
       clipPathUnits="userSpaceOnUse"
       id="clipPath5745">
      <path
         d="m 365.36229,260.2005 v 27.94364 H 380.5041 V 260.2005 Z"
         id="path5743"
         inkscape:connector-curvature="0" />
    </clipPath>
    <linearGradient
       x1="0"
       y1="0"
       x2="1"
       y2="0"
       gradientUnits="userSpaceOnUse"
       gradientTransform="matrix(0,27.943,27.943,0,372.933,260.201)"
       spreadMethod="pad"
       id="linearGradient5751">
      <stop
         style="stop-opacity:1;stop-color:#b6d560"
         offset="0"
         id="stop5747" />
      <stop
         style="stop-opacity:1;stop-color:#00a96a"
         offset="1"
         id="stop5749" />
    </linearGradient>
    <clipPath
       clipPathUnits="userSpaceOnUse"
       id="clipPath5717">
      <path
         d="m 365.362,363.297 h 39.677 v -130.54 h -39.677 z"
         id="path5715"
         inkscape:connector-curvature="0" />
    </clipPath>
  </defs>
  <sodipodi:namedview
     id="base"
     pagecolor="#ffffff"
     bordercolor="#666666"
     borderopacity="1.0"
     inkscape:pageopacity="0.0"
     inkscape:pageshadow="2"
     inkscape:zoom="1"
     inkscape:cx="232.01903"
     inkscape:cy="-69.17651"
     inkscape:document-units="px"
     inkscape:current-layer="layer1"
     showgrid="false"
     fit-margin-top="5"
     fit-margin-bottom="5"
     fit-margin-right="5"
     fit-margin-left="5"
     inkscape:window-width="1440"
     inkscape:window-height="848"
     inkscape:window-x="-8"
     inkscape:window-y="-8"
     inkscape:window-maximized="1"
     units="px" />
  <metadata
     id="metadata6850">
    <rdf:RDF>
      <cc:Work
         rdf:about="">
        <dc:format>image/svg+xml</dc:format>
        <dc:type
           rdf:resource="http://purl.org/dc/dcmitype/StillImage" />
        <dc:title></dc:title>
      </cc:Work>
    </rdf:RDF>
  </metadata>
  <g
     inkscape:label="Layer 1"
     inkscape:groupmode="layer"
     id="layer1"
     transform="translate(-44.444964,-89.106964)">
    <g
       id="g5691"
       transform="matrix(0,1.1392592,1.1392592,0,189.49524,135.24912)">
      <path
         d="M 0,0 -5.23,-3.647 C -3.554,-5.319 -1.697,-6.365 0,-6.979 v -4.035 c -2.637,0.914 -5.277,2.643 -7.927,5.417 l -7.413,-5.485 v 4.359 l 5.206,3.632 c -1.663,1.669 -3.364,2.626 -5.206,3.19 v 3.936 c 3.702,-1.197 6.046,-3.248 7.846,-5.216 L 0,4.37"
         style="fill:#005bac;fill-opacity:1;fill-rule:nonzero;stroke:none"
         id="path5693"
         inkscape:connector-curvature="0" />
    </g>
    <g
       id="g5695"
       transform="matrix(0,1.1392592,1.1392592,0,116.7786,117.77174)">
      <path
         d="M 0,0 V -3.992 L 7.017,-7.033 C 5.402,-8.575 2.599,-10.056 0,-10.567 v -4.027 c 4.616,1.182 7.972,3.524 10.279,5.96 l 5.061,-2.641 v 4.052"
         style="fill:#005bac;fill-opacity:1;fill-rule:nonzero;stroke:none"
         id="path5697"
         inkscape:connector-curvature="0" />
    </g>
    <g
       id="g5699"
       transform="matrix(0,1.1392592,1.1392592,0,123.65061,135.63306)">
      <path
         d="m 0,0 c 0,-1.799 -0.495,-3.951 -1.146,-5.51 l -2.95,1.026 c 0.585,1.128 1.097,2.521 1.122,4.073 0.027,1.449 -0.223,2.541 -1.637,2.541 -0.948,0 -1.37,-0.816 -2.221,-3.376 -0.821,-2.478 -1.916,-4.165 -4.638,-4.165 -3.159,0 -4.531,2.771 -4.531,5.352 0,1.673 0.37,3.939 0.921,5.157 l 2.852,-0.981 c -0.368,-1.021 -0.693,-2.257 -0.741,-3.33 -0.056,-1.356 0.31,-2.501 1.414,-2.501 1.067,0 1.388,0.784 2.409,3.919 0.635,1.951 1.612,3.688 4.296,3.688 C -1.444,5.893 0,2.875 0,0"
         style="fill:#005bac;fill-opacity:1;fill-rule:nonzero;stroke:none"
         id="path5701"
         inkscape:connector-curvature="0" />
    </g>
    <g
       id="g5703"
       transform="matrix(0,1.1392592,1.1392592,0,92.678713,135.63306)">
      <path
         d="m 0,0 c 0,-1.801 -0.495,-3.951 -1.146,-5.512 l -2.95,1.026 c 0.585,1.128 1.097,2.52 1.122,4.073 0.027,1.448 -0.223,2.542 -1.637,2.542 -0.948,0 -1.37,-0.816 -2.221,-3.375 -0.821,-2.48 -1.916,-4.167 -4.638,-4.167 -3.159,0 -4.531,2.772 -4.531,5.352 0,1.673 0.37,3.939 0.921,5.158 l 2.852,-0.981 c -0.368,-1.023 -0.693,-2.258 -0.741,-3.33 -0.056,-1.356 0.31,-2.5 1.414,-2.5 1.067,0 1.388,0.782 2.409,3.918 0.635,1.951 1.612,3.687 4.296,3.687 C -1.444,5.891 0,2.873 0,0"
         style="fill:#005bac;fill-opacity:1;fill-rule:nonzero;stroke:none"
         id="path5705"
         inkscape:connector-curvature="0" />
    </g>
    <g
       id="g5707"
       transform="matrix(0,1.1392592,1.1392592,0,152.3383,135.24912)">
      <path
         d="m 0,0 h -9.622 c -1.718,0 -2.822,-0.648 -2.822,-2.344 0,-0.942 0.301,-1.542 0.767,-2.343 0.613,0.123 1.196,0.123 1.809,0.123 H 0 v -3.748 h -9.654 c -1.717,0 -2.79,-0.757 -2.79,-2.304 0,-0.863 0.24,-1.456 0.645,-2.321 0.142,0.026 0.459,0.06 0.673,0.06 H 0 v -3.746 h -12.136 c -0.677,0 -1.552,-0.105 -1.993,-0.184 -0.828,2.234 -1.535,4.677 -1.535,6.559 0,2.115 0.339,3.228 1.413,4.27 -0.767,1.379 -1.413,2.574 -1.413,4.714 0,3.31 1.964,5.012 5.305,5.012 L 0,3.748"
         style="fill:#005bac;fill-opacity:1;fill-rule:nonzero;stroke:none"
         id="path5709"
         inkscape:connector-curvature="0" />
    </g>
    <g
       transform="matrix(0,1.1392592,1.1392592,0,-219.41563,-325.81247)"
       id="g5711">
      <g
         id="g5713"
         clip-path="url(#clipPath5717)">
        <g
           id="g5719"
           transform="translate(391.972,340.042)">
          <path
             d="M 0,0 C 0,-2.02 1.697,-3.407 3.538,-3.501 V 3.227 C 1.604,3.195 0,2.116 0,0 M 6.384,6.687 V -3.501 c 2.128,0.189 3.665,1.815 3.694,4.331 0.016,1.601 -0.449,2.921 -1.164,4.198 l 2.736,1.198 c 0.985,-1.689 1.418,-3.902 1.418,-5.618 0,-4.861 -3.217,-7.914 -7.967,-7.914 -4.446,0 -8.034,2.737 -8.034,7.357 0,4.548 3.55,6.799 7.327,6.799 0.676,0 1.322,-0.044 1.99,-0.163"
             style="fill:#005bac;fill-opacity:1;fill-rule:nonzero;stroke:none"
             id="path5721"
             inkscape:connector-curvature="0" />
        </g>
      </g>
    </g>
    <g
       transform="matrix(0,1.1392592,1.1392592,0,-219.41563,-325.81247)"
       id="g5723">
      <g
         id="g5725"
         clip-path="url(#clipPath5729)">
        <g
           id="g5731">
          <g
             id="g5733">
            <g
               id="g5739">
              <g
                 id="g5741"
                 clip-path="url(#clipPath5745)">
                <path
                   d="m 365.388,275.663 c 0.089,-0.543 0.309,-0.888 0.938,-1.704 0.629,-0.816 10.606,-13.759 10.606,-13.759 l 3.572,10.175 c -3.03,3.932 -8.261,12.136 -7.741,17.769 0,0 -6.438,-9.933 -6.957,-10.737 -0.274,-0.424 -0.444,-0.916 -0.444,-1.41 0,-0.112 0.008,-0.223 0.026,-0.334"
                   style="fill:url(#linearGradient5751);stroke:none"
                   id="path5753"
                   inkscape:connector-curvature="0" />
              </g>
            </g>
          </g>
        </g>
      </g>
    </g>
    <g
       transform="matrix(0,1.1392592,1.1392592,0,-219.41563,-325.81247)"
       id="g5755">
      <g
         id="g5757"
         clip-path="url(#clipPath5761)">
        <g
           id="g5763">
          <g
             id="g5765">
            <g
               id="g5771">
              <g
                 id="g5773"
                 clip-path="url(#clipPath5777)">
                <path
                   d="m 378.332,233.17 c 0.187,-0.251 0.329,-0.385 0.509,-0.401 0.158,-0.012 0.379,0.147 0.86,0.586 0.525,0.479 2.084,2.005 3.173,3.683 1.088,1.679 1.357,3.358 1.462,4.315 0.203,2.216 -0.631,5.274 -2.413,8.842 -1.585,3.174 -3.483,5.91 -4.574,7.379 0,0 -0.447,-1.275 -0.515,-1.466 -1.229,-3.502 -1.835,-7.226 -1.835,-10.747 0,-4.801 1.127,-9.224 3.333,-12.191"
                   style="fill:url(#linearGradient5783);stroke:none"
                   id="path5785"
                   inkscape:connector-curvature="0" />
              </g>
            </g>
          </g>
        </g>
      </g>
    </g>
    <g
       transform="matrix(0,1.1392592,1.1392592,0,-219.41563,-325.81247)"
       id="g5787">
      <g
         id="g5789"
         clip-path="url(#clipPath5793)">
        <g
           id="g5795">
          <g
             id="g5797">
            <g
               id="g5803">
              <g
                 id="g5805"
                 clip-path="url(#clipPath5809)">
                <path
                   d="m 385.593,241.236 c 0,0 6.439,9.937 6.958,10.739 0.335,0.519 0.515,1.142 0.416,1.742 -0.086,0.543 -0.309,0.889 -0.938,1.705 -0.628,0.815 -10.605,13.759 -10.605,13.759 l -3.572,-10.175 c 3.03,-3.933 8.26,-12.135 7.741,-17.77"
                   style="fill:url(#linearGradient5815);stroke:none"
                   id="path5817"
                   inkscape:connector-curvature="0" />
              </g>
            </g>
          </g>
        </g>
      </g>
    </g>
    <g
       transform="matrix(0,1.1392592,1.1392592,0,-219.41563,-325.81247)"
       id="g5819">
      <g
         id="g5821"
         clip-path="url(#clipPath5825)">
        <g
           id="g5827">
          <g
             id="g5829">
            <g
               id="g5835">
              <g
                 id="g5837"
                 clip-path="url(#clipPath5841)">
                <path
                   d="m 376.433,279.188 c 1.586,-3.176 3.484,-5.912 4.574,-7.382 0,0 0.446,1.276 0.515,1.465 2.905,8.281 2.325,17.798 -1.499,22.94 -0.188,0.251 -0.328,0.385 -0.508,0.402 -0.158,0.012 -0.378,-0.149 -0.861,-0.588 -0.523,-0.478 -2.084,-2.004 -3.17,-3.682 -1.09,-1.679 -1.359,-3.36 -1.464,-4.314 -0.02,-0.219 -0.03,-0.446 -0.03,-0.681 0,-2.145 0.837,-4.946 2.443,-8.16"
                   style="fill:url(#linearGradient5847);stroke:none"
                   id="path5849"
                   inkscape:connector-curvature="0" />
              </g>
            </g>
          </g>
        </g>
      </g>
    </g>
  </g>
</svg>
