<svg xmlns="http://www.w3.org/2000/svg" viewBox="0 0 1200 900" preserveAspectRatio="xMidYMid slice">
  <defs>
    <linearGradient id="g" x1="0" y1="0" x2="1" y2="1">
      <stop offset="0%" stop-color="#023565"/>
      <stop offset="55%" stop-color="#0a5591"/>
      <stop offset="100%" stop-color="#1470ae"/>
    </linearGradient>
  </defs>
  <rect width="1200" height="900" fill="url(#g)"/>
  <g fill="rgba(255,255,255,0.1)" stroke="rgba(255,255,255,0.18)" stroke-width="1.5">
    <rect x="120" y="400" width="160" height="380" rx="6"/>
    <rect x="320" y="300" width="160" height="480" rx="6"/>
    <rect x="520" y="220" width="160" height="560" rx="6"/>
    <rect x="720" y="300" width="160" height="480" rx="6"/>
    <rect x="920" y="400" width="160" height="380" rx="6"/>
  </g>
  <g fill="rgba(255,255,255,0.18)">
    <circle cx="180" cy="560" r="5"/><circle cx="240" cy="560" r="5"/>
    <circle cx="380" cy="440" r="5"/><circle cx="440" cy="440" r="5"/>
    <circle cx="580" cy="340" r="5"/><circle cx="640" cy="340" r="5"/>
    <circle cx="780" cy="440" r="5"/><circle cx="840" cy="440" r="5"/>
    <circle cx="980" cy="560" r="5"/><circle cx="1040" cy="560" r="5"/>
  </g>
</svg>
